<svg xmlns="http://www.w3.org/2000/svg" version="1.1" xmlns:xlink="http://www.w3.org/1999/xlink" xmlns:svgjs="http://svgjs.dev/svgjs" width="1000" height="1000" viewBox="0 0 1000 1000"><rect width="1000" height="1000" fill="#d9bca9"></rect><g transform="matrix(0.7,0,0,0.7,150,106.25)"><svg viewBox="0 0 320 360" data-background-color="#d9bca9" preserveAspectRatio="xMidYMid meet" height="1125" width="1000" xmlns="http://www.w3.org/2000/svg" xmlns:xlink="http://www.w3.org/1999/xlink"><g id="tight-bounds" transform="matrix(1,0,0,1,0,0)"><svg viewBox="0 0 320 360" height="360" width="320"><g><svg></svg></g><g><svg viewBox="0 0 320 360" height="360" width="320"><g><path xmlns="http://www.w3.org/2000/svg" d="M320 141.95l-19.957-19.957v-28.224l-53.812-53.812h-28.223l-19.958-19.957h-76.1l-19.957 19.957h-28.224l-53.812 53.812v28.224l-19.957 19.957v76.104l19.957 19.958v28.223l53.816 53.808h28.224l19.957 19.957h76.104l19.958-19.957h28.223l53.812-53.812v-28.224l19.949-19.957zM244.374 44.437l51.189 51.189v21.887l-73.076-73.076zM295.563 123.849v112.306l-79.408 79.408h-112.306l-79.412-79.412v-112.302l79.412-79.412h112.306zM123.807 24.48h72.39l15.478 15.477h-103.346zM24.437 95.626l51.189-51.189h21.887l-73.076 73.076zM4.484 216.197v-72.394l15.477-15.478v103.342zM75.626 315.563l-51.189-51.189v-21.887l73.076 73.076zM196.197 335.52h-72.39l-15.478-15.477h103.342zM295.563 264.374l-51.189 51.189h-21.887l73.076-73.076zM315.52 216.197l-15.477 15.478v-103.346l15.477 15.478z" fill="#000000" fill-rule="nonzero" stroke="none" stroke-width="1" stroke-linecap="butt" stroke-linejoin="miter" stroke-miterlimit="10" stroke-dasharray="" stroke-dashoffset="0" font-family="none" font-weight="none" font-size="none" text-anchor="none" style="mix-blend-mode: normal" data-fill-palette-color="tertiary"></path></g><g transform="matrix(1,0,0,1,56,145.39738577000674)"><svg viewBox="0 0 208 69.20522845998654" height="69.20522845998654" width="208"><g><svg viewBox="0 0 208 69.20522845998654" height="69.20522845998654" width="208"><g><svg viewBox="0 0 208 69.20522845998654" height="69.20522845998654" width="208"><g transform="matrix(1,0,0,1,0,41.828919496589485)"><svg viewBox="0 0 208 27.376308963397058" height="27.376308963397058" width="208"><g><svg viewBox="0 0 208 27.376308963397058" height="27.376308963397058" width="208"><g><svg viewBox="0 0 208 27.376308963397058" height="27.376308963397058" width="208"><g transform="matrix(1,0,0,1,0,0)"><svg width="208" viewBox="2.490000009536743 -54.93000030517578 508.2200012207031 66.88999938964844" height="27.376308963397058" data-palette-color="#000000"><path d="M48.68-11.18L48.68-11.18Q48.68-10.21 48.36-9.59 48.05-8.98 47.66-8.2L47.66-8.2Q47.56-8.25 47.41-8.25L47.41-8.25Q47.12-8.25 46.88-8.11 46.63-7.96 46.39-7.86L46.39-7.86Q44.97-6.3 43.48-4.83 41.99-3.37 40.19-2.25L40.19-2.25Q39.7-1.95 39.21-1.68 38.72-1.42 38.18-1.17L38.18-1.17Q37.99-1.07 37.82-1 37.65-0.93 37.5-0.83L37.5-0.83Q37.16-0.63 36.79-0.2 36.43 0.24 35.96 0.71 35.5 1.17 34.96 1.49 34.42 1.81 33.79 1.76L33.79 1.76Q33.4 2 33.11 2.39 32.81 2.78 32.42 3.17L32.42 3.17Q30.32 3.91 28.59 5.1 26.86 6.3 25 7.42L25 7.42Q23.88 8.15 22.75 8.59L22.75 8.59Q22.51 8.69 22.19 8.74 21.88 8.79 21.53 8.89L21.53 8.89Q19.92 9.28 18.29 9.52 16.65 9.77 14.99 9.77L14.99 9.77Q12.94 9.77 11.04 9.28L11.04 9.28Q11.04 9.13 10.94 9.08 10.84 9.03 10.72 8.98 10.6 8.94 10.5 8.86 10.4 8.79 10.5 8.59L10.5 8.59Q9.42 8.5 8.62 8.06 7.81 7.62 7.57 6.49L7.57 6.49Q7.42 6.59 7.32 6.74 7.23 6.88 6.98 6.84L6.98 6.84Q6.3 5.86 5.47 5.03 4.64 4.2 4.25 3.03L4.25 3.03Q4.15 2.78 4.13 2.56 4.1 2.34 4.05 2.1L4.05 2.1Q3.81 1.42 3.17 1.42L3.17 1.42Q3.27 1.22 3.27 0.93L3.27 0.93Q3.27 0.78 3.25 0.63 3.22 0.49 3.22 0.34L3.22 0.34Q3.22 0.1 3.37-0.15L3.37-0.15Q2.88-1.27 2.69-2.37 2.49-3.47 2.49-4.64L2.49-4.64Q2.49-6.15 2.64-7.64 2.78-9.13 2.78-10.64L2.78-10.64Q3.08-11.23 3.25-12.01 3.42-12.79 3.86-13.28L3.86-13.28Q3.81-13.57 3.66-13.6 3.52-13.62 3.52-13.87L3.52-13.87Q3.52-14.75 3.86-15.77 4.2-16.8 4.2-17.87L4.2-17.87Q4.64-18.12 4.76-18.6 4.88-19.09 5.27-19.38L5.27-19.38 5.27-19.63Q5.27-20.36 5.44-21.09 5.62-21.83 5.79-22.53 5.96-23.24 6.08-23.95 6.2-24.66 6.15-25.34L6.15-25.34Q6.25-25.49 6.42-25.9 6.59-26.32 6.76-26.78 6.93-27.25 7.06-27.69 7.18-28.13 7.18-28.32L7.18-28.32Q7.18-28.61 7.08-28.86 6.98-29.1 6.98-29.39L6.98-29.39Q6.98-29.64 7.13-30.1 7.28-30.57 7.37-30.86L7.37-30.86Q7.57-31.69 7.74-32.59 7.91-33.5 8.06-34.33L8.06-34.33Q8.5-37.01 8.69-39.72 8.89-42.43 8.94-45.17L8.94-45.17Q9.62-45.56 10.38-45.9 11.13-46.24 11.96-46.24L11.96-46.24Q12.21-46.24 12.45-46.19 12.7-46.14 12.94-46.04L12.94-46.04Q13.18-45.07 13.72-44.48 14.26-43.9 14.7-43.07L14.7-43.07Q14.4-42.29 14.31-41.46L14.31-41.46 14.16-39.79Q14.11-38.96 13.96-38.16 13.82-37.35 13.48-36.62L13.48-36.62Q13.57-36.38 13.57-36.13L13.57-36.13 13.57-35.64Q13.57-34.96 13.45-34.33 13.33-33.69 13.18-33.03 13.04-32.37 12.94-31.74 12.84-31.1 12.94-30.47L12.94-30.47Q12.79-30.22 12.65-30.1 12.5-29.98 12.45-29.74L12.45-29.74 12.35-28.81Q12.26-28.27 12.18-27.76 12.11-27.25 12.01-26.71L12.01-26.71Q11.67-25.24 11.25-23.78 10.84-22.31 10.84-20.75L10.84-20.75 10.84-20.46Q10.4-19.78 10.16-18.77 9.91-17.77 10.01-16.94L10.01-16.94Q9.47-15.53 8.98-14.16 8.5-12.79 8.5-11.33L8.5-11.33Q8.5-11.08 8.52-10.82 8.54-10.55 8.59-10.3L8.59-10.3Q8.2-9.33 8.11-8.33 8.01-7.32 8.01-6.35L8.01-6.35Q8.01-5.66 8.08-4.76 8.15-3.86 8.33-2.91 8.5-1.95 8.74-1.07 8.98-0.2 9.28 0.34L9.28 0.34Q10.4 2.15 12.23 3.2 14.06 4.25 16.11 4.54L16.11 4.54Q16.94 4.25 17.46 4.2 17.97 4.15 18.9 4.2L18.9 4.2Q19.68 3.81 20.48 3.61 21.29 3.42 22.12 3.17L22.12 3.17Q22.36 3.08 22.63 2.98 22.9 2.88 23.1 2.78L23.1 2.78Q23.34 2.69 23.63 2.34 23.93 2 24.17 1.76L24.17 1.76Q25.2 1.46 26.12 0.95 27.05 0.44 27.93-0.1L27.93-0.1 29.74-1.17Q30.66-1.71 31.69-2.1L31.69-2.1Q32.08-2.25 32.15-2.51 32.23-2.78 32.42-3.17L32.42-3.17Q32.52-3.08 32.71-3.08L32.71-3.08Q33.3-3.08 33.54-3.44 33.79-3.81 34.13-4.2L34.13-4.2Q34.77-4.3 35.35-4.57 35.94-4.83 36.23-5.42L36.23-5.42Q37.45-5.66 38.38-6.3 39.31-6.93 40.19-7.69 41.06-8.45 41.94-9.16 42.82-9.86 43.95-10.3L43.95-10.3Q44.09-10.55 44.14-10.74 44.19-10.94 44.29-11.18L44.29-11.18Q45.12-11.28 45.61-11.65 46.09-12.01 46.73-12.4L46.73-12.4Q48.1-12.26 48.68-11.18ZM80.17-3.56L80.17-3.56Q80.03-2.88 79.56-2.47 79.1-2.05 78.46-1.81 77.83-1.56 77.17-1.49 76.51-1.42 75.97-1.42L75.97-1.42Q75.73-1.42 75.51-1.44 75.29-1.46 75.05-1.46L75.05-1.46Q74.8-1.46 74.8-1.22 74.8-0.98 74.56-0.88L74.56-0.88Q74.31-0.98 74.07-1.03 73.83-1.07 73.58-1.07L73.58-1.07Q73.24-1.07 72.92-1.03 72.6-0.98 72.31-0.98L72.31-0.98Q71.92-0.98 71.75-1.07 71.58-1.17 71.46-1.29 71.34-1.42 71.21-1.56 71.09-1.71 70.85-1.81L70.85-1.81Q70.51-1.95 70.29-1.86 70.07-1.76 69.63-2.15L69.63-2.15Q69.04-2.64 68.63-3.34 68.21-4.05 67.82-4.83 67.43-5.62 66.99-6.4 66.55-7.18 65.96-7.76L65.96-7.76 65.57-7.76Q64.69-7.76 64.35-7.03L64.35-7.03Q64.11-7.18 63.86-7.4 63.62-7.62 63.33-7.76L63.33-7.76Q62.2-7.42 60.98-7.18 59.76-6.93 58.54-6.93L58.54-6.93 57.86-6.93Q57.57-6.93 57.22-7.03L57.22-7.03Q56.74-6.84 56.35-6.57 55.95-6.3 55.47-6.3L55.47-6.3Q55.17-6.3 54.78-6.49L54.78-6.49Q54.49-6.49 54.51-6.25 54.54-6.01 54.2-6.01L54.2-6.01 53.76-6.01Q53.07-6.01 52.41-5.96 51.76-5.91 51.07-5.91L51.07-5.91Q50.14-5.91 49.17-6.15L49.17-6.15Q48.92-6.01 48.63-6.01L48.63-6.01Q48.44-5.91 48.34-5.69 48.24-5.47 48.14-5.3 48.04-5.13 47.87-5 47.7-4.88 47.41-4.93L47.41-4.93Q47.31-4.35 46.92-4 46.53-3.66 46.53-2.98L46.53-2.98Q45.99-2.69 45.65-2.25 45.31-1.81 44.97-1.32 44.63-0.83 44.26-0.39 43.89 0.05 43.36 0.29L43.36 0.29Q43.11 0.59 43.21 1.22L43.21 1.22Q42.67 1.66 41.89 2 41.11 2.34 40.43 2.34L40.43 2.34Q39.01 2.34 38.47 0.83L38.47 0.83Q38.47 0.34 38.55-0.22 38.62-0.78 38.77-1.29 38.91-1.81 39.21-2.22 39.5-2.64 40.04-2.83L40.04-2.83Q40.04-3.27 39.74-3.44 39.45-3.61 39.5-4.05L39.5-4.05Q40.82-4.69 41.79-5.71 42.77-6.74 43.58-7.89 44.38-9.03 45.21-10.21 46.04-11.38 47.07-12.3L47.07-12.3 47.07-13.33Q48.53-14.89 48.97-16.85L48.97-16.85Q49.51-16.94 49.68-17.33 49.85-17.72 49.85-18.26L49.85-18.26Q50.1-18.26 50.17-18.48 50.24-18.7 50.58-18.6L50.58-18.6Q51.02-19.78 51.56-20.75 52.1-21.73 52.63-22.73 53.17-23.73 53.59-24.8 54-25.88 54.2-27.2L54.2-27.2Q54.88-27.25 54.95-27.86 55.03-28.47 55.12-28.96L55.12-28.96Q55.86-29.64 56.22-30.57 56.59-31.49 56.88-32.5 57.18-33.5 57.54-34.5 57.91-35.5 58.59-36.28L58.59-36.28 58.59-36.43Q58.59-36.67 58.4-36.74 58.2-36.82 58.2-37.06L58.2-37.06Q58.25-37.11 58.25-37.16L58.25-37.16Q58.84-37.4 59.13-37.96 59.42-38.53 60.01-38.77L60.01-38.77Q61.03-37.94 61.81-37.77 62.6-37.6 63.86-37.5L63.86-37.5Q64.5-36.82 64.57-35.86 64.65-34.91 64.89-33.98L64.89-33.98Q65.28-32.42 65.74-30.93 66.21-29.44 66.45-27.88L66.45-27.88Q66.6-26.95 66.99-26.12 67.38-25.29 67.53-24.41L67.53-24.41Q67.62-23.73 67.53-22.88 67.43-22.02 67.72-21.39L67.72-21.39 68.06-20.61Q68.31-20.07 68.48-19.48 68.65-18.9 68.8-18.31L68.8-18.31Q69.19-16.85 69.5-15.16 69.82-13.48 70.51-12.11L70.51-12.11Q70.75-11.62 71.26-11.43 71.77-11.23 72.41-11.16 73.04-11.08 73.65-11.11 74.27-11.13 74.7-11.13L74.7-11.13 75.19-11.13Q75.49-11.13 75.78-11.04L75.78-11.04Q75.97-10.64 75.97-10.35L75.97-10.35Q75.97-9.77 75.58-9.42 75.19-9.08 75.19-8.64L75.19-8.64Q75.19-8.4 75.39-8.11L75.39-8.11Q75.19-8.15 74.8-8.15L74.8-8.15Q73.68-8.15 72.6-7.76L72.6-7.76Q73-6.93 73.65-6.37 74.31-5.81 75.05-5.32L75.05-5.32Q75.53-5.71 76.07-5.71L76.07-5.71Q76.66-5.71 77.17-5.44 77.68-5.18 78.27-5.18L78.27-5.18Q78.71-5.18 78.9-5.32L78.9-5.32Q79.29-4.88 79.54-4.42 79.78-3.96 80.17-3.56ZM64.89-11.38L64.89-11.38Q64.79-12.21 64.57-12.57 64.35-12.94 64.21-13.48L64.21-13.48Q64.01-14.16 63.94-14.94 63.86-15.72 63.72-16.46L63.72-16.46Q63.38-18.12 62.96-19.78 62.55-21.44 61.91-23L61.91-23Q62.11-23.29 62.11-23.54L62.11-23.54 62.11-23.68Q61.67-24.17 61.47-24.88 61.28-25.59 61.11-26.29 60.94-27 60.67-27.61 60.4-28.22 59.81-28.61L59.81-28.61Q59.67-28.32 59.67-27.93L59.67-27.93Q59.67-27.59 59.74-27.29 59.81-27 59.81-26.66L59.81-26.66Q59.32-26.42 59.1-25.9 58.88-25.39 58.4-25.1L58.4-25.1Q58.01-23.54 57.27-22.14 56.54-20.75 55.73-19.38 54.93-18.02 54.2-16.63 53.46-15.23 53.02-13.72L53.02-13.72Q52.39-13.28 52.17-12.6 51.95-11.91 51.95-11.23L51.95-11.23Q52.39-10.99 52.95-10.96 53.51-10.94 54.05-10.94 54.59-10.94 55.08-10.84 55.56-10.74 55.95-10.35L55.95-10.35Q56.59-10.55 57.35-10.62 58.1-10.69 58.59-11.04L58.59-11.04Q59.57-10.69 60.69-10.69L60.69-10.69Q61.28-10.69 61.84-10.79 62.4-10.89 62.94-11.04L62.94-11.04Q63.38-10.94 63.62-10.72 63.86-10.5 64.35-10.55L64.35-10.55Q64.6-10.74 64.65-10.96 64.69-11.18 64.89-11.38ZM141.25-8.5L141.25-8.5Q141.16-7.76 140.74-7.37 140.33-6.98 139.79-6.64L139.79-6.64Q139.55-6.69 139.33-6.71 139.11-6.74 138.86-6.74L138.86-6.74Q137.35-6.79 136.01-6.35 134.66-5.91 133.25-5.71L133.25-5.71Q132.76-5.62 132.34-5.64 131.93-5.66 131.49-5.57L131.49-5.57Q129.93-5.32 128.17-5.18 126.41-5.03 124.65-4.81 122.9-4.59 121.21-4.27 119.53-3.96 118.06-3.37L118.06-3.37Q117.91-3.47 117.77-3.59 117.62-3.71 117.43-3.71L117.43-3.71Q116.94-3.71 116.5-3.56 116.06-3.42 115.62-3.47L115.62-3.47Q115.13-3.17 114.57-3.05 114.01-2.93 113.45-2.86 112.89-2.78 112.35-2.64 111.81-2.49 111.32-2.1L111.32-2.1Q110.93-2.29 110.37-2.32 109.81-2.34 109.61-2.69L109.61-2.69Q108.49-2.15 107.25-2 106-1.86 104.73-1.9L104.73-1.9Q103.9-1.95 102.83-2.15 101.75-2.34 100.68-2.71 99.6-3.08 98.68-3.59 97.75-4.1 97.26-4.83L97.26-4.83Q96.92-5.32 96.77-5.91 96.63-6.49 96.09-6.79L96.09-6.79Q96.24-7.91 96.43-8.98 96.63-10.06 96.82-11.18L96.82-11.18Q97.8-12.01 98.68-12.94 99.56-13.87 100.34-14.89L100.34-14.89Q101.26-15.33 102.07-15.97 102.88-16.6 103.68-17.26 104.49-17.92 105.29-18.55 106.1-19.19 107.03-19.68L107.03-19.68Q107.17-20.02 107.44-20.24 107.71-20.46 108-20.68 108.3-20.9 108.54-21.17 108.78-21.44 108.88-21.83L108.88-21.83Q110.59-22.85 111.86-24.41 113.13-25.98 113.52-27.93L113.52-27.93Q112.69-28.61 111.64-28.83 110.59-29.05 109.47-29.15L109.47-29.15Q108.49-29.2 107.44-29.15 106.39-29.1 105.32-29.2L105.32-29.2Q104.24-28.86 103.1-28.76 101.95-28.66 100.83-28.59 99.7-28.52 98.6-28.3 97.5-28.08 96.48-27.49L96.48-27.49Q96.28-27.49 96.11-27.54 95.94-27.59 95.75-27.59L95.75-27.59Q94.18-27.64 92.82-26.98 91.45-26.32 90.13-25.68L90.13-25.68Q90.03-25.49 90.03-25.39L90.03-25.39Q90.03-25.1 90.16-24.83 90.28-24.56 90.28-24.27L90.28-24.27Q90.23-24.22 90.23-24.17 90.23-24.12 90.18-24.07L90.18-24.07Q90.13-23.83 90.06-23.63 89.99-23.44 89.89-23.19L89.89-23.19Q89.35-21.63 89.3-20.12L89.3-20.12Q89.25-18.85 89.3-17.63 89.35-16.41 89.3-15.14L89.3-15.14Q89.2-13.57 88.81-12.21L88.81-12.21Q89.06-11.04 89.25-9.74 89.45-8.45 89.74-7.18 90.03-5.91 90.45-4.71 90.86-3.52 91.55-2.44L91.55-2.44Q91.5-2.34 91.6-2.29 91.69-2.25 91.79-2.25L91.79-2.25 92.18-2.25Q92.43-2.25 92.38-2.05L92.38-2.05Q92.48-1.9 92.52-1.78 92.57-1.66 92.72-1.56L92.72-1.56Q92.82-1.42 92.72-1.17L92.72-1.17Q92.67-0.2 92.23 0.63 91.79 1.46 91.69 2.44L91.69 2.44Q91.11 2.59 90.62 2.59L90.62 2.59Q89.79 2.54 89.16 2.12 88.52 1.71 87.98 1.12 87.45 0.54 86.96-0.07 86.47-0.68 85.88-1.12L85.88-1.12Q85.54-2.49 85.22-4.15 84.91-5.81 84.17-6.98L84.17-6.98Q84.37-7.42 84.37-8.06L84.37-8.06Q84.42-9.03 84.2-9.99 83.98-10.94 84.08-11.91L84.08-11.91Q84.08-12.45 84.2-12.99 84.32-13.53 84.37-14.06L84.37-14.06Q84.42-14.89 84.2-15.67 83.98-16.46 84.03-17.29L84.03-17.29Q84.08-17.68 84.2-18.04 84.32-18.41 84.57-18.7L84.57-18.7Q84.32-19.29 84.42-19.82L84.42-19.82Q84.47-20.65 84.61-21.39 84.76-22.12 84.81-22.85L84.81-22.85Q84.81-23.24 84.76-23.61 84.71-23.97 84.61-24.32L84.61-24.32 84.17-24.46Q83.88-24.46 83.61-24.32 83.34-24.17 83.15-23.97 82.95-23.78 82.81-23.66 82.66-23.54 82.51-23.54L82.51-23.54Q82.42-23.54 82.29-23.56 82.17-23.58 82.08-23.58L82.08-23.58Q81.98-23.58 81.71-23.39 81.44-23.19 81.07-22.97 80.71-22.75 80.37-22.53 80.02-22.31 79.83-22.27L79.83-22.27Q79.29-22.36 78.97-22.63 78.66-22.9 78.39-23.17 78.12-23.44 77.83-23.66 77.53-23.88 77.09-23.83L77.09-23.83Q76.95-24.12 76.92-24.46 76.9-24.8 76.95-25.15L76.95-25.15 76.95-25.93Q77.29-26.56 77.85-26.98 78.41-27.39 79.05-27.69L79.05-27.69 80.32-28.27Q80.95-28.56 81.49-29L81.49-29 81.93-29Q82.81-28.96 83.47-29.35 84.13-29.74 84.71-30.25 85.3-30.76 85.91-31.3 86.52-31.84 87.25-32.13L87.25-32.13Q87.79-31.88 88.37-31.71 88.96-31.54 89.59-31.49L89.59-31.49Q90.23-31.49 90.91-31.69 91.6-31.88 91.99-32.42L91.99-32.42Q92.23-32.32 92.4-32.3 92.57-32.28 92.82-32.28L92.82-32.28Q93.55-32.23 94.28-32.5 95.01-32.76 95.7-33.15L95.7-33.15Q96.67-33.11 97.63-33.28 98.58-33.45 99.53-33.64 100.48-33.84 101.44-34.01 102.39-34.18 103.36-34.13L103.36-34.13Q104.98-34.08 106.54-34.42 108.1-34.77 109.71-34.67L109.71-34.67Q110.83-34.62 111.93-34.5 113.03-34.38 114.16-34.42L114.16-34.42Q114.79-34.13 115.3-33.91 115.82-33.69 116.6-33.79L116.6-33.79Q118.16-32.47 119.43-30.71L119.43-30.71 119.43-29.88Q119.38-28.76 119.04-27.69 118.7-26.61 118.23-25.56 117.77-24.51 117.23-23.51 116.69-22.51 116.21-21.53L116.21-21.53Q113.03-18.65 109.86-15.82 106.68-12.99 103.32-10.35L103.32-10.35Q103.22-9.86 103.05-9.47 102.88-9.08 102.83-8.64L102.83-8.64Q102.83-8.4 102.88-8.25L102.88-8.25Q103.22-8.15 103.49-7.89 103.75-7.62 103.66-7.18L103.66-7.18 104.1-7.18Q104.34-7.18 104.34-6.98L104.34-6.98 105.12-6.93Q106.98-6.84 108.83-7.03 110.69-7.23 112.57-7.47 114.45-7.71 116.3-7.93 118.16-8.15 120.01-8.2L120.01-8.2Q120.45-8.35 120.94-8.45 121.43-8.54 121.82-8.84L121.82-8.84 121.97-8.84Q122.31-8.84 122.48-8.64 122.65-8.45 122.99-8.4L122.99-8.4Q123.24-8.4 123.51-8.5 123.77-8.59 124.07-8.64L124.07-8.64Q124.75-8.84 125.51-8.89 126.26-8.94 127-9.03L127-9.03Q129.83-9.28 132.61-9.35 135.4-9.42 138.18-10.06L138.18-10.06Q138.42-9.72 138.86-9.59 139.3-9.47 139.79-9.35 140.28-9.23 140.69-9.08 141.11-8.94 141.25-8.5ZM168.3-31.4L168.45-31.4Q168.25-30.76 167.81-30.22L167.81-30.22 166.98-29.2Q166.59-28.71 166.33-28.15 166.06-27.59 166.15-26.86L166.15-26.86Q166.06-26.86 165.91-26.88 165.76-26.9 165.67-26.9L165.67-26.9Q164.89-26.9 164.47-26.54 164.06-26.17 163.37-25.93L163.37-25.93Q163.27-26.22 163.13-26.49 162.98-26.76 162.69-26.86L162.69-26.86Q161.52-26.61 160.34-26.49 159.17-26.37 158-26.17L158-26.17Q157.46-26.07 156.93-25.9 156.39-25.73 155.8-25.59L155.8-25.59Q155.51-25.49 155.17-25.51 154.83-25.54 154.48-25.49L154.48-25.49Q153.31-25.44 151.95-25.32 150.58-25.2 149.5-24.56L149.5-24.56Q149.02-24.66 148.48-24.71 147.94-24.76 147.4-24.76L147.4-24.76Q146.23-24.76 144.84-24.54 143.45-24.32 142.38-23.68L142.38-23.68Q142.13-23.78 141.86-23.83 141.59-23.88 141.25-23.88L141.25-23.88Q141.15-23.88 141.11-23.85 141.06-23.83 140.96-23.83L140.96-23.83Q140.91-23.39 141.08-22.97 141.25-22.56 141.69-22.31L141.69-22.31Q141.5-21.78 141.5-21.14L141.5-21.14Q141.5-20.31 141.62-19.48 141.74-18.65 141.74-17.82L141.74-17.82Q141.74-16.89 141.5-16.36L141.5-16.36Q141.98-14.89 141.98-13.23L141.98-13.23Q141.98-12.65 141.91-12.08 141.84-11.52 141.84-10.89L141.84-10.89Q141.84-10.35 142.23-10.03 142.62-9.72 142.62-9.18L142.62-9.18Q142.62-8.98 142.52-8.79L142.52-8.79Q143.21-8.94 143.84-9.2 144.47-9.47 145.16-9.47L145.16-9.47Q145.55-9.47 145.92-9.33 146.28-9.18 146.57-8.94L146.57-8.94Q146.53-8.69 146.5-8.4 146.48-8.11 146.48-7.81L146.48-7.81Q146.48-7.28 146.5-6.81 146.53-6.35 146.57-5.81L146.57-5.81Q146.18-5.13 145.67-4.59 145.16-4.05 144.96-3.22L144.96-3.22Q144.23-3.22 143.67-2.91 143.11-2.59 142.62-2.22 142.13-1.86 141.64-1.54 141.15-1.22 140.57-1.22L140.57-1.22Q139.84-1.22 139.54-1.44 139.25-1.66 139.1-1.9 138.96-2.15 138.84-2.34 138.71-2.54 138.32-2.49L138.32-2.49Q138.22-3.13 137.93-3.69 137.64-4.25 137.32-4.79 137-5.32 136.69-5.88 136.37-6.45 136.22-7.03L136.22-7.03Q135.93-8.3 135.98-9.67 136.03-11.04 135.54-12.3L135.54-12.3Q135.64-12.99 135.69-13.7 135.73-14.4 135.73-15.09L135.73-15.09Q135.73-16.46 135.66-17.8 135.59-19.14 135.54-20.56L135.54-20.56Q135.2-21 135.12-21.56 135.05-22.12 135-22.66L135-22.66Q134.86-22.8 134.68-22.95 134.51-23.1 134.47-23.34L134.47-23.34Q134.07-23.44 133.88-23.44L133.88-23.44Q133.2-23.44 132.73-23.12 132.27-22.8 131.88-22.8L131.88-22.8Q131.49-22.8 131.14-22.9 130.8-23 130.46-23L130.46-23Q130.17-23 130.14-22.88 130.12-22.75 129.92-22.66L129.92-22.66Q129.78-22.56 129.24-22.46 128.7-22.36 128.04-22.29 127.39-22.22 126.77-22.17 126.16-22.12 125.97-22.12L125.97-22.12Q125.19-22.12 124.77-22.44 124.36-22.75 123.77-23.14L123.77-23.14Q123.87-23.44 123.87-23.54L123.87-23.54Q123.87-24.02 123.58-24.34 123.28-24.66 123.28-24.9L123.28-24.9Q123.28-25.44 123.7-25.73 124.11-26.03 124.16-26.66L124.16-26.66Q125.29-27.15 126.46-27.39 127.63-27.64 128.85-27.78 130.07-27.93 131.27-28.13 132.46-28.32 133.64-28.76L133.64-28.76Q133.98-28.71 134.29-28.69 134.61-28.66 134.95-28.66L134.95-28.66Q136.42-28.66 137.86-28.98 139.3-29.3 140.81-29.3L140.81-29.3Q141.2-29.3 141.59-29.25 141.98-29.2 142.38-29.1L142.38-29.1Q144.33-29.39 146.26-29.74 148.19-30.08 150.24-30.32L150.24-30.32Q151.21-30.42 152.17-30.49 153.12-30.57 154.09-30.71L154.09-30.71Q154.44-30.76 154.61-30.88 154.78-31.01 154.78-31.4L154.78-31.4Q155.22-31.2 155.75-31.2L155.75-31.2Q156.58-31.2 157.37-31.49 158.15-31.79 158.98-31.79L158.98-31.79Q159.17-31.79 159.32-31.76 159.47-31.74 159.61-31.74L159.61-31.74Q159.95-31.74 159.98-32.06 160-32.37 160.44-32.47L160.44-32.47Q160.78-32.57 161.42-32.62 162.05-32.67 162.76-32.74 163.47-32.81 164.08-32.93 164.69-33.06 164.98-33.3L164.98-33.3 165.32-33.84Q166.2-33.79 166.62-33.08 167.03-32.37 167.08-31.54L167.08-31.54Q167.28-31.35 167.64-31.37 168.01-31.4 168.3-31.4L168.3-31.4ZM224.69-45.17L224.69-45.17Q224.4-44.68 224.28-44.14 224.16-43.6 224.11-43.07L224.11-43.07 223.77-43.07Q223.38-43.07 223.08-43.19 222.79-43.31 222.4-43.41L222.4-43.41Q222.59-41.55 222.64-39.65 222.69-37.74 222.69-35.89L222.69-35.89Q222.69-33.54 222.64-31.23 222.59-28.91 222.59-26.56L222.59-26.56Q222.59-25.44 222.47-24.34 222.35-23.24 221.86-22.22L221.86-22.22Q221.96-21.39 222.01-20.63 222.06-19.87 222.06-19.04L222.06-19.04Q222.06-16.75 221.79-14.48 221.52-12.21 221.13-9.96L221.13-9.96Q220.98-9.08 220.86-8.18 220.74-7.28 220.5-6.45L220.5-6.45Q220.4-6.2 220.23-5.96 220.06-5.71 219.96-5.47L219.96-5.47Q219.37-4.2 218.66-2.95 217.96-1.71 216.98-0.68L216.98-0.68Q216.25-0.63 215.56-0.29 214.88 0.05 214.29 0.05L214.29 0.05Q213.76 0.05 213.42-0.49L213.42-0.49 212.93-0.29Q212.68-0.2 212.39-0.15L212.39-0.15Q210.73-0.83 209.24-1.81 207.75-2.78 206.77-4.35L206.77-4.35 206.58-4.35Q206.14-4.35 205.94-4.54L205.94-4.54Q205.7-4.79 205.43-5.15 205.16-5.52 204.97-5.81L204.97-5.81Q204.38-6.74 203.7-7.67 203.01-8.59 202.09-9.23L202.09-9.23Q201.7-10.69 200.92-11.74 200.13-12.79 199.3-14.01L199.3-14.01Q198.67-16.46 196.96-18.55L196.96-18.55Q197.2-18.8 197.2-18.9L197.2-18.9Q197.2-19.14 197.03-19.31 196.86-19.48 196.86-19.68L196.86-19.68Q196.86-19.87 196.96-19.97L196.96-19.97Q196.33-20.65 195.91-21.51 195.5-22.36 195.13-23.24 194.76-24.12 194.35-25 193.93-25.88 193.35-26.61L193.35-26.61Q192.81-26.27 192.69-25.78 192.57-25.29 192.57-24.76L192.57-24.76Q192.57-24.37 192.59-23.97 192.61-23.58 192.61-23.19L192.61-23.19Q192.61-22.22 192.39-21.29 192.18-20.36 192.08-19.38L192.08-19.38Q192.03-18.7 192.05-17.87 192.08-17.04 192-16.21 191.93-15.38 191.74-14.6 191.54-13.82 191.05-13.28L191.05-13.28Q190.76-10.5 190.32-7.71 189.88-4.93 189.49-2.15L189.49-2.15Q189.39-1.66 189.29-0.93 189.2-0.2 189.07 0.56 188.95 1.32 188.88 2.03 188.81 2.73 188.81 3.17L188.81 3.17Q188.81 3.66 189.05 4.13 189.29 4.59 189.29 5.03L189.29 5.03Q189.29 5.37 189.07 5.44 188.85 5.52 188.81 5.81L188.81 5.81Q189.15 6.88 189.15 8.25L189.15 8.25Q189.15 8.64 189.1 9.06 189.05 9.47 188.95 9.86L188.95 9.86Q188.85 10.11 188.61 10.33 188.37 10.55 188.37 10.74L188.37 10.74Q188.37 10.94 188.56 11.04L188.56 11.04Q188.27 11.33 187.83 11.43 187.39 11.52 187.19 11.96L187.19 11.96Q186.71 11.57 186.22 11.25 185.73 10.94 185.29 10.55L185.29 10.55 185.14 10.5Q184.8 10.5 184.58 10.72 184.36 10.94 184.02 10.94L184.02 10.94Q183.92 10.94 183.85 10.91 183.78 10.89 183.68 10.89L183.68 10.89 183.39 9.62Q183.24 8.98 183 8.45L183 8.45Q183.39 7.42 183.51 6.13 183.63 4.83 183.78 3.52 183.92 2.2 184.22 1 184.51-0.2 185.29-1.07L185.29-1.07Q185.29-1.46 185.02-1.61 184.75-1.76 184.75-2.25L184.75-2.25Q184.75-2.34 184.83-2.59 184.9-2.83 184.97-3.13 185.05-3.42 185.12-3.69 185.19-3.96 185.24-4.1L185.24-4.1Q185.63-6.01 185.85-8.01 186.07-10.01 187.05-11.72L187.05-11.72Q187-11.91 187-12.3L187-12.3Q187-13.13 187.17-13.92 187.34-14.7 187.34-15.53L187.34-15.53Q187.34-16.21 187.19-16.8L187.19-16.8Q187.34-17.33 187.61-17.85 187.88-18.36 187.88-18.9L187.88-18.9Q187.88-19.38 187.54-19.58L187.54-19.58Q187.78-19.78 187.85-20.02 187.93-20.26 187.95-20.51 187.98-20.75 188.05-20.97 188.12-21.19 188.42-21.34L188.42-21.34Q188.37-21.83 188.34-22.27 188.32-22.71 188.32-23.19L188.32-23.19Q188.32-25 188.51-26.78 188.71-28.56 188.71-30.42L188.71-30.42Q188.71-32.23 188.42-33.94L188.42-33.94 188.95-35.01Q188.46-35.4 188.32-36.28 188.17-37.16 188.12-38.18 188.07-39.21 187.95-40.21 187.83-41.21 187.39-41.85L187.39-41.85 187.39-42.29Q187.39-43.07 187.29-43.8 187.19-44.53 187.19-45.26L187.19-45.26 187.19-45.7Q187.44-45.8 187.56-46.04 187.68-46.29 187.73-46.53L187.73-46.53 187.93-46.53Q188.51-46.53 189.1-46.63 189.68-46.73 190.27-46.73L190.27-46.73 190.91-46.73Q191.49-46.29 191.93-45.7 192.37-45.12 193.01-44.63L193.01-44.63 193.01-43.75Q193.44-43.16 193.69-42.48 193.93-41.8 194.2-41.06 194.47-40.33 194.76-39.65 195.06-38.96 195.59-38.48L195.59-38.48Q195.5-37.99 195.5-37.7L195.5-37.7Q195.5-37.06 195.62-36.43 195.74-35.79 195.79-35.21L195.79-35.21Q195.98-34.96 196.13-34.59 196.28-34.23 196.62-34.13L196.62-34.13Q196.86-32.23 197.62-30.52 198.38-28.81 198.72-26.95L198.72-26.95Q199.11-26.56 199.3-26 199.5-25.44 199.72-24.9 199.94-24.37 200.21-23.9 200.48-23.44 201.01-23.24L201.01-23.24Q201.31-22.07 201.75-20.9 202.18-19.73 203.11-18.9L203.11-18.9Q203.11-17.92 203.43-17.21 203.75-16.5 204.16-15.89 204.58-15.28 204.92-14.7 205.26-14.11 205.36-13.43L205.36-13.43Q206.04-12.4 206.95-11.52 207.85-10.64 208.8-9.84 209.75-9.03 210.68-8.2 211.61-7.37 212.39-6.45L212.39-6.45Q212.93-6.4 213.29-6.23 213.66-6.05 214.15-5.96L214.15-5.96Q214.49-6.2 214.71-6.57 214.93-6.93 215.12-7.32 215.32-7.71 215.54-8.08 215.76-8.45 216.1-8.74L216.1-8.74Q216.1-8.84 216.08-8.91 216.05-8.98 216.05-9.08L216.05-9.08Q216.05-9.62 216.22-9.94 216.39-10.25 216.64-10.64L216.64-10.64 216.64-11.91Q217.03-12.65 217.18-13.48 217.32-14.31 217.32-15.14L217.32-15.14Q217.32-15.82 217.27-16.53 217.22-17.24 217.22-17.97L217.22-17.97Q217.22-18.41 217.27-18.87 217.32-19.34 217.47-19.73L217.47-19.73Q217.57-19.82 217.81-20.04 218.05-20.26 218.05-20.31L218.05-20.31Q218.05-20.56 217.91-20.8 217.76-21.04 217.76-21.29L217.76-21.29Q217.76-21.63 218.05-21.83L218.05-21.83 218.05-22.12Q218.05-22.36 217.98-22.58 217.91-22.8 217.66-22.9L217.66-22.9Q217.91-23.19 218.01-23.61 218.1-24.02 218.13-24.49 218.15-24.95 218.13-25.39 218.1-25.83 218.1-26.22L218.1-26.22Q218.1-26.66 218.15-27.15 218.2-27.64 218.54-27.98L218.54-27.98Q218.4-28.56 218.35-29.13 218.3-29.69 218.3-30.27L218.3-30.27Q218.3-31.3 218.4-32.32 218.49-33.35 218.49-34.42L218.49-34.42Q218.49-34.81 218.44-35.23 218.4-35.64 218.4-36.04L218.4-36.04Q218.4-36.43 218.57-36.4 218.74-36.38 218.74-36.62L218.74-36.62Q218.74-36.96 218.66-37.3 218.59-37.65 218.54-37.99L218.54-37.99Q218.44-38.82 218.4-39.67 218.35-40.53 218.35-41.41L218.35-41.41Q218.35-41.94 218.37-42.5 218.4-43.07 218.54-43.6L218.54-43.6Q218.25-44.04 218.18-44.46 218.1-44.87 218.05-45.21L218.05-45.21 217.96-45.95Q217.91-46.34 217.66-46.73L217.66-46.73Q217.61-46.78 217.61-47.02L217.61-47.02Q217.61-47.41 217.81-47.61L217.81-47.61Q217.57-48.44 217.15-49.22 216.74-50 216.64-50.93L216.64-50.93Q216.1-51.22 215.83-51.88 215.56-52.54 215.56-53.08L215.56-53.08Q215.56-53.71 215.91-54.32 216.25-54.93 216.98-54.93L216.98-54.93Q217.27-54.93 217.54-54.76 217.81-54.59 218.08-54.37 218.35-54.15 218.62-53.98 218.88-53.81 219.18-53.81L219.18-53.81Q219.37-53.81 219.76-53.91L219.76-53.91Q220.3-53.17 220.86-52.56 221.42-51.95 222.01-51.32L222.01-51.32Q222.01-50.49 222.3-49.8 222.59-49.12 222.94-48.51 223.28-47.9 223.55-47.31 223.82-46.73 223.77-46.04L223.77-46.04Q223.86-45.7 224.16-45.56 224.45-45.41 224.69-45.17ZM259.21-7.91L259.21-7.91Q259.02-7.18 258.58-6.69 258.14-6.2 257.58-5.81 257.02-5.42 256.38-5.1 255.75-4.79 255.16-4.39L255.16-4.39 254.53-4.39Q252.48-4.39 251.38-5.4 250.28-6.4 249.69-7.89 249.11-9.38 248.84-11.08 248.57-12.79 248.18-14.21L248.18-14.21Q247.59-13.72 247.2-13.06 246.81-12.4 246.4-11.77 245.98-11.13 245.47-10.6 244.96-10.06 244.13-9.86L244.13-9.86Q243.98-9.52 243.81-9.18 243.64-8.84 243.59-8.45L243.59-8.45Q242.51-7.86 241.64-7.08 240.76-6.3 239.88-5.47 239-4.64 238.1-3.88 237.19-3.13 236.07-2.64L236.07-2.64Q236.02-2.69 235.87-2.69L235.87-2.69Q235.29-2.69 234.8-2.42 234.31-2.15 233.73-2.15L233.73-2.15Q233.33-2.15 233.02-2.29 232.7-2.44 232.38-2.64 232.07-2.83 231.72-2.93 231.38-3.03 230.99-2.98L230.99-2.98Q230.5-3.86 229.7-4.61 228.89-5.37 228.7-6.35L228.7-6.35Q228.6-6.79 228.57-7.25 228.55-7.71 228.45-8.2L228.45-8.2Q228.31-8.94 228.06-9.69 227.82-10.45 227.67-11.23L227.67-11.23Q227.91-12.55 228.13-14.14 228.35-15.72 228.67-17.31 228.99-18.9 229.55-20.34 230.11-21.78 230.99-22.8L230.99-22.8 230.94-23.14Q230.94-23.93 231.24-24.61 231.53-25.29 231.87-25.93 232.21-26.56 232.46-27.2 232.7-27.83 232.55-28.61L232.55-28.61Q233.14-28.91 233.77-29.1 234.41-29.3 235.09-29.3L235.09-29.3Q235.73-29.3 236.26-29.1L236.26-29.1Q236.17-28.71 236.61-28.61L236.61-28.61 236.61-28.47Q236.61-27.44 236.36-26.46 236.12-25.49 235.78-24.54 235.43-23.58 235.12-22.63 234.8-21.68 234.65-20.7L234.65-20.7Q234.46-20.65 234.38-20.51 234.31-20.36 234.26-20.21 234.21-20.07 234.12-19.97 234.02-19.87 233.82-19.87L233.82-19.87Q233.53-18.16 233.21-16.48 232.9-14.79 232.9-13.09L232.9-13.09Q232.9-12.06 233.09-10.99 233.29-9.91 233.82-8.94L233.82-8.94 234.02-8.98Q234.56-8.98 234.87-8.74 235.19-8.5 235.73-8.25L235.73-8.25Q236.12-8.35 236.46-8.52 236.8-8.69 236.75-9.13L236.75-9.13Q237.39-9.18 237.83-9.45 238.27-9.72 238.61-10.06L238.61-10.06 239.34-10.74Q239.73-11.08 240.27-11.23L240.27-11.23Q240.27-11.52 240.41-11.67L240.41-11.67 240.71-11.96Q240.85-12.11 240.93-12.28 241-12.45 240.95-12.79L240.95-12.79Q241.54-12.84 241.86-13.09 242.17-13.33 242.44-13.65 242.71-13.96 242.95-14.31 243.2-14.65 243.59-14.89L243.59-14.89Q243.93-15.63 244.54-16.85 245.15-18.07 245.76-19.38 246.37-20.7 246.84-21.9 247.3-23.1 247.3-23.73L247.3-23.73Q247.3-23.97 247.18-24.17 247.06-24.37 247.1-24.61L247.1-24.61 247.1-24.76Q247.49-25.24 247.81-25.83 248.13-26.42 248.5-26.95 248.86-27.49 249.3-27.93 249.74-28.37 250.42-28.61L250.42-28.61Q251.21-28.37 252.01-28.27 252.82-28.17 253.55-27.88L253.55-27.88Q253.6-26.66 253.79-25.05 253.99-23.44 254.48-22.31L254.48-22.31Q254.48-21.68 254.45-21.09 254.43-20.51 254.43-19.92L254.43-19.92Q254.43-18.95 254.5-17.92 254.57-16.89 254.82-16.02L254.82-16.02Q254.48-15.28 254.48-14.45L254.48-14.45Q254.48-13.33 254.82-12.33 255.16-11.33 255.31-10.21L255.31-10.21Q255.94-9.33 256.97-9.33L256.97-9.33Q257.21-9.33 257.38-9.38 257.55-9.42 257.75-9.52L257.75-9.52Q258.14-9.08 258.46-8.67 258.77-8.25 259.21-7.91ZM307.8-6.15L307.8-6.15Q307.55-5.37 307.65-4.59L307.65-4.59Q307.5-4.39 307.31-4.35 307.11-4.3 306.92-4.22 306.72-4.15 306.6-4.03 306.48-3.91 306.57-3.56L306.57-3.56Q304.96-3.47 303.5-2.88 302.03-2.29 300.62-1.61L300.62-1.61Q299.88-1.86 299.35-2.2 298.81-2.54 297.98-2.64L297.98-2.64Q297.15-4.3 296.44-6.13 295.73-7.96 295.73-9.81L295.73-9.81Q295.73-11.18 296.22-12.3L296.22-12.3Q296.22-13.77 296.47-15.19 296.71-16.6 297.03-17.99 297.35-19.38 297.59-20.8 297.83-22.22 297.83-23.68L297.83-23.68 297.83-24.76Q297.74-24.76 297.59-24.54 297.44-24.32 297.32-24.05 297.2-23.78 297.1-23.54 297-23.29 296.96-23.24L296.96-23.24Q296.13-22.61 295.66-21.66 295.2-20.7 294.66-19.87L294.66-19.87Q293.98-18.85 293.22-17.87 292.46-16.89 291.34-16.36L291.34-16.36 291.34-16.26Q291.34-16.02 291.19-15.92 291.05-15.82 291.14-15.43L291.14-15.43Q289.92-15.04 288.87-14.31 287.82-13.57 287.14-12.45L287.14-12.45Q286.16-12.21 285.31-11.79 284.46-11.38 283.58-10.89L283.58-10.89Q283.19-10.69 282.75-10.4 282.31-10.11 281.87-10.01L281.87-10.01Q281.48-9.86 280.82-9.81 280.16-9.77 279.45-9.72 278.74-9.67 278.06-9.67L278.06-9.67 276.98-9.67Q276.74-9.67 276.35-9.91 275.96-10.16 275.5-10.45 275.03-10.74 274.54-11.01 274.05-11.28 273.62-11.38L273.62-11.38Q273.22-12.65 272.52-13.65 271.81-14.65 271.03-15.67L271.03-15.67Q270.78-16.85 270.37-18.12 269.95-19.38 268.93-20.21L268.93-20.21Q269.17-20.56 269.17-21L269.17-21Q269.17-21.53 268.93-22.02 268.68-22.51 268.68-23.1L268.68-23.1Q268.68-23.49 268.73-23.68L268.73-23.68Q268.2-23.1 267.98-22.19 267.76-21.29 267.76-20.56L267.76-20.56Q267.76-19.97 267.9-19.48L267.9-19.48Q267.41-18.8 267.29-17.77 267.17-16.75 267.17-15.97L267.17-15.97Q267.17-14.99 267.32-14.06L267.32-14.06Q266.54-13.28 266.54-12.16L266.54-12.16Q266.54-11.52 266.83-11.04L266.83-11.04Q266.83-10.84 266.73-10.74 266.63-10.64 266.51-10.6 266.39-10.55 266.27-10.47 266.14-10.4 266.14-10.21L266.14-10.21Q266.14-9.96 266.17-9.67 266.19-9.38 266.19-9.08L266.19-9.08Q266.19-8.4 266.14-7.67 266.1-6.93 266.1-6.25L266.1-6.25Q266.1-4.83 266.36-4.22 266.63-3.61 267.05-3.32 267.46-3.03 267.95-2.73 268.44-2.44 268.93-1.61L268.93-1.61Q268.78-1.17 268.42-0.9 268.05-0.63 267.73-0.37 267.41-0.1 267.17 0.24 266.93 0.59 266.97 1.22L266.97 1.22 266.73 1.22Q266.1 1.22 265.51 1.42 264.92 1.61 264.29 1.61L264.29 1.61Q264.14 1.61 264 1.59 263.85 1.56 263.7 1.56L263.7 1.56 263.21 1.27Q262.97 1.12 262.73 1.12L262.73 1.12Q262.48 1.12 262.09 1.22L262.09 1.22Q261.41-0.98 261.04-3.32 260.68-5.66 260.68-7.91L260.68-7.91Q260.68-8.15 260.8-8.42 260.92-8.69 261.16-8.59L261.16-8.59 261.16-9.52Q261.16-11.04 261.43-12.48 261.7-13.92 261.7-15.48L261.7-15.48Q261.7-15.92 261.68-16.36 261.65-16.8 261.6-17.19L261.6-17.19Q261.85-18.02 262.12-18.87 262.38-19.73 262.38-20.65L262.38-20.65Q262.38-21.04 262.24-21.58L262.24-21.58Q262.63-21.88 262.82-22.34 263.02-22.8 263.12-23.36 263.21-23.93 263.26-24.46 263.31-25 263.36-25.44L263.36-25.44Q263.85-26.42 263.9-27.54 263.95-28.66 264.39-29.64L264.39-29.64Q264.34-29.83 264.34-30.32L264.34-30.32Q264.34-31.3 264.66-32.3 264.97-33.3 265.95-33.84L265.95-33.84Q266.83-33.5 268-33.5L268-33.5Q269.12-33.5 270.15-33.84L270.15-33.84Q270.44-33.74 270.69-33.62 270.93-33.5 271.2-33.37 271.47-33.25 271.76-33.18 272.05-33.11 272.44-33.15L272.44-33.15Q272.93-31.74 273.3-30.27 273.66-28.81 273.86-27.29L273.86-27.29Q273.96-26.66 273.93-25.93 273.91-25.2 274.01-24.56L274.01-24.56Q274.05-24.17 274.25-23.85 274.45-23.54 274.64-23.14 274.84-22.75 274.96-22.27 275.08-21.78 275.03-21.04L275.03-21.04Q275.57-19.78 276.23-18.63 276.89-17.48 277.67-16.36L277.67-16.36Q278.11-16.21 278.45-15.99 278.79-15.77 278.89-15.28L278.89-15.28Q279.33-15.28 279.67-15.14L279.67-15.14 280.5-14.89Q282.36-15.48 283.94-16.46 285.53-17.43 287.29-18.12L287.29-18.12Q289.44-20.21 291-22.78 292.56-25.34 294.12-27.88L294.12-27.88 294.12-28.96Q294.42-29.1 294.64-29.32 294.86-29.54 295.2-29.64L295.2-29.64Q295.25-30.22 295.47-30.79 295.69-31.35 295.95-31.86 296.22-32.37 296.42-32.89 296.61-33.4 296.61-33.98L296.61-33.98Q296.61-34.33 296.56-34.57L296.56-34.57Q297.3-35.3 298.32-35.3L298.32-35.3Q299.3-35.3 300.3-34.84 301.3-34.38 302.18-33.98L302.18-33.98Q302.72-32.81 302.99-31.52 303.25-30.22 303.35-28.86 303.45-27.49 303.45-26.12L303.45-26.12 303.45-22.66Q303.4-22.27 303.18-22.09 302.96-21.92 302.86-21.58L302.86-21.58 302.86-21.09Q302.86-20.85 302.81-20.61L302.81-20.61Q302.81-19.58 302.57-18.46L302.57-18.46Q302.33-17.04 301.96-15.6 301.59-14.16 301.59-12.7L301.59-12.7Q301.59-12.16 301.64-11.62 301.69-11.08 301.84-10.55L301.84-10.55Q301.59-10.11 301.59-9.42L301.59-9.42Q301.59-8.64 301.86-7.98 302.13-7.32 302.52-6.69L302.52-6.69Q303.21-6.69 303.89-6.74 304.57-6.79 305.3-6.79L305.3-6.79Q305.99-6.79 306.57-6.67 307.16-6.54 307.8-6.15ZM340.31-31.05L340.31-31.05 340.31-30.86Q339.97-30.76 339.97-30.37L339.97-30.37Q339.43-30.13 338.85-30 338.26-29.88 337.72-29.64L337.72-29.64Q337.19-29.69 336.63-29.71 336.06-29.74 335.53-29.74L335.53-29.74Q334.06-29.74 332.6-29.64 331.13-29.54 329.67-29.64L329.67-29.64Q328.98-29.25 328.18-29.03 327.37-28.81 326.64-28.81L326.64-28.81Q326.05-28.81 325.61-28.96L325.61-28.96Q324.44-28.37 323.05-27.98 321.66-27.59 320.24-27.22 318.83-26.86 317.53-26.39 316.24-25.93 315.26-25.1L315.26-25.1Q315.17-24.41 315.12-23.75 315.07-23.1 315.07-22.46L315.07-22.46Q315.07-21.78 315.14-21.19 315.21-20.61 315.46-20.02L315.46-20.02Q315.7-19.92 316.02-19.87 316.34-19.82 316.58-19.82L316.58-19.82Q316.83-19.82 317.07-19.9 317.31-19.97 317.41-20.21L317.41-20.21Q318.14-20.31 318.88-20.29 319.61-20.26 320.34-20.26L320.34-20.26Q321.07-20.26 321.78-20.31 322.49-20.36 323.17-20.56L323.17-20.56Q323.95-20.75 324.71-20.8 325.47-20.85 326.2-20.9 326.93-20.95 327.71-21.07 328.5-21.19 329.33-21.58L329.33-21.58Q329.96-21.34 330.62-21.34 331.28-21.34 331.91-21.24L331.91-21.24Q332.26-21 332.48-20.7 332.69-20.41 332.69-20.02L332.69-20.02Q332.69-19.34 332.21-18.65 331.72-17.97 331.43-17.38L331.43-17.38 330.89-17.38Q329.72-17.38 328.62-17.07 327.52-16.75 326.42-16.33 325.32-15.92 324.22-15.6 323.12-15.28 321.95-15.28L321.95-15.28Q321.76-15.28 321.73-15.06 321.71-14.84 321.61-14.75L321.61-14.75Q321.37-14.79 320.88-14.79L320.88-14.79Q319.76-14.79 318.73-14.55 317.7-14.31 316.63-14.31L316.63-14.31Q316.34-14.31 316.04-14.33 315.75-14.36 315.46-14.4L315.46-14.4Q315.21-14.01 314.82-13.89 314.43-13.77 314.09-13.48L314.09-13.48Q313.94-13.04 313.92-12.4 313.9-11.77 313.87-11.11 313.85-10.45 313.75-9.86 313.65-9.28 313.36-8.94L313.36-8.94Q313.41-8.69 313.75-8.76 314.09-8.84 314.09-8.45L314.09-8.45Q314.09-8.01 313.99-7.52 313.9-7.03 313.9-6.54L313.9-6.54Q313.9-5.62 314.12-4.52 314.34-3.42 314.8-2.49 315.26-1.56 316.04-0.95 316.83-0.34 318-0.34L318-0.34Q318.78-0.34 319.46-0.63 320.15-0.93 320.59-1.61L320.59-1.61 320.83-1.66Q321.02-1.66 321.2-1.61 321.37-1.56 321.56-1.56L321.56-1.56Q321.86-1.56 322.32-1.93 322.78-2.29 323.34-2.78 323.91-3.27 324.49-3.74 325.08-4.2 325.61-4.39L325.61-4.39Q325.96-5.08 326.27-5.76 326.59-6.45 327.23-6.84L327.23-6.84 327.23-8.25Q327.71-8.79 328.28-9.23 328.84-9.67 329.13-10.35L329.13-10.35Q329.37-10.25 329.59-10.21 329.81-10.16 330.06-10.16L330.06-10.16Q330.3-10.16 330.57-10.21 330.84-10.25 331.08-10.35L331.08-10.35Q331.47-9.81 331.69-9.16 331.91-8.5 332.26-7.91L332.26-7.91Q331.82-7.03 331.23-5.81 330.64-4.59 329.96-3.37 329.28-2.15 328.52-1.05 327.76 0.05 327.03 0.63L327.03 0.63Q326.88 0.78 326.4 0.98L326.4 0.98Q325.86 1.37 325.42 1.73 324.98 2.1 324.59 2.59L324.59 2.59Q323.17 3.03 321.88 3.76 320.59 4.49 319.32 5.18L319.32 5.18Q318.73 5.03 318.05 5.03L318.05 5.03Q317.46 5.03 316.87 5.1 316.29 5.18 315.61 5.18L315.61 5.18Q315.41 4.93 315.04 4.86 314.68 4.79 314.77 4.35L314.77 4.35Q313.11 4.25 312.09 3.44 311.06 2.64 310.36 1.46 309.65 0.29 309.21-1.07 308.77-2.44 308.28-3.71L308.28-3.71 308.28-3.86Q308.28-4.1 308.48-4.15 308.67-4.2 308.67-4.44L308.67-4.44Q308.67-4.54 308.62-4.59L308.62-4.59Q308.48-5.13 308.38-5.52 308.28-5.91 308.28-6.45L308.28-6.45Q308.28-7.23 308.38-7.98 308.48-8.74 308.48-9.52L308.48-9.52Q308.48-10.3 308.28-10.89L308.28-10.89Q308.48-11.13 308.6-11.55 308.72-11.96 308.77-12.4 308.82-12.84 308.84-13.28 308.87-13.72 308.96-14.06L308.96-14.06Q308.77-14.6 308.62-15.01 308.48-15.43 308.48-16.02L308.48-16.02 308.48-16.36Q308.96-17.19 309.31-18.07 309.65-18.95 310.04-19.87L310.04-19.87 310.04-20.02Q310.04-21.44 309.94-22.85 309.84-24.27 309.84-25.68L309.84-25.68 309.84-26.61Q309.84-27.1 309.89-27.54L309.89-27.54Q310.28-27.73 310.48-28.08 310.67-28.42 311.06-28.61L311.06-28.61 312.68-28.61 312.97-29.1Q313.11-29.35 313.16-29.64L313.16-29.64Q313.7-29.79 314.21-30.05 314.73-30.32 315.17-30.62L315.17-30.62Q315.85-31.01 316.41-31.32 316.97-31.64 317.53-31.86 318.1-32.08 318.73-32.23 319.36-32.37 320.19-32.47L320.19-32.47Q320.59-32.47 320.71-32.62 320.83-32.76 321.07-32.96L321.07-32.96Q321.66-32.86 322.25-32.79 322.83-32.71 323.42-32.71L323.42-32.71Q324.59-32.71 325.61-33.15L325.61-33.15Q327.08-33.15 328.52-33.2 329.96-33.25 331.43-33.25L331.43-33.25Q332.69-33.25 333.96-33.15 335.23-33.06 336.45-32.81L336.45-32.81Q336.89-32.96 337.43-32.96L337.43-32.96Q338.02-32.96 338.63-32.84 339.24-32.71 339.82-32.81L339.82-32.81Q339.87-32.28 340.09-31.91 340.31-31.54 340.31-31.05ZM400.42-8.5L400.42-8.5Q400.32-7.76 399.9-7.37 399.49-6.98 398.95-6.64L398.95-6.64Q398.71-6.69 398.49-6.71 398.27-6.74 398.02-6.74L398.02-6.74Q396.51-6.79 395.17-6.35 393.83-5.91 392.41-5.71L392.41-5.71Q391.92-5.62 391.51-5.64 391.09-5.66 390.65-5.57L390.65-5.57Q389.09-5.32 387.33-5.18 385.57-5.03 383.82-4.81 382.06-4.59 380.37-4.27 378.69-3.96 377.22-3.37L377.22-3.37Q377.08-3.47 376.93-3.59 376.78-3.71 376.59-3.71L376.59-3.71Q376.1-3.71 375.66-3.56 375.22-3.42 374.78-3.47L374.78-3.47Q374.29-3.17 373.73-3.05 373.17-2.93 372.61-2.86 372.05-2.78 371.51-2.64 370.97-2.49 370.49-2.1L370.49-2.1Q370.09-2.29 369.53-2.32 368.97-2.34 368.78-2.69L368.78-2.69Q367.65-2.15 366.41-2 365.16-1.86 363.89-1.9L363.89-1.9Q363.06-1.95 361.99-2.15 360.92-2.34 359.84-2.71 358.77-3.08 357.84-3.59 356.91-4.1 356.42-4.83L356.42-4.83Q356.08-5.32 355.93-5.91 355.79-6.49 355.25-6.79L355.25-6.79Q355.4-7.91 355.59-8.98 355.79-10.06 355.98-11.18L355.98-11.18Q356.96-12.01 357.84-12.94 358.72-13.87 359.5-14.89L359.5-14.89Q360.43-15.33 361.23-15.97 362.04-16.6 362.84-17.26 363.65-17.92 364.46-18.55 365.26-19.19 366.19-19.68L366.19-19.68Q366.33-20.02 366.6-20.24 366.87-20.46 367.17-20.68 367.46-20.9 367.7-21.17 367.95-21.44 368.04-21.83L368.04-21.83Q369.75-22.85 371.02-24.41 372.29-25.98 372.68-27.93L372.68-27.93Q371.85-28.61 370.8-28.83 369.75-29.05 368.63-29.15L368.63-29.15Q367.65-29.2 366.6-29.15 365.55-29.1 364.48-29.2L364.48-29.2Q363.41-28.86 362.26-28.76 361.11-28.66 359.99-28.59 358.86-28.52 357.77-28.3 356.67-28.08 355.64-27.49L355.64-27.49Q355.45-27.49 355.28-27.54 355.1-27.59 354.91-27.59L354.91-27.59Q353.35-27.64 351.98-26.98 350.61-26.32 349.29-25.68L349.29-25.68Q349.2-25.49 349.2-25.39L349.2-25.39Q349.2-25.1 349.32-24.83 349.44-24.56 349.44-24.27L349.44-24.27Q349.39-24.22 349.39-24.17 349.39-24.12 349.34-24.07L349.34-24.07Q349.29-23.83 349.22-23.63 349.15-23.44 349.05-23.19L349.05-23.19Q348.51-21.63 348.46-20.12L348.46-20.12Q348.42-18.85 348.46-17.63 348.51-16.41 348.46-15.14L348.46-15.14Q348.37-13.57 347.98-12.21L347.98-12.21Q348.22-11.04 348.42-9.74 348.61-8.45 348.9-7.18 349.2-5.91 349.61-4.71 350.03-3.52 350.71-2.44L350.71-2.44Q350.66-2.34 350.76-2.29 350.86-2.25 350.95-2.25L350.95-2.25 351.34-2.25Q351.59-2.25 351.54-2.05L351.54-2.05Q351.64-1.9 351.69-1.78 351.74-1.66 351.88-1.56L351.88-1.56Q351.98-1.42 351.88-1.17L351.88-1.17Q351.83-0.2 351.39 0.63 350.95 1.46 350.86 2.44L350.86 2.44Q350.27 2.59 349.78 2.59L349.78 2.59Q348.95 2.54 348.32 2.12 347.68 1.71 347.15 1.12 346.61 0.54 346.12-0.07 345.63-0.68 345.05-1.12L345.05-1.12Q344.7-2.49 344.39-4.15 344.07-5.81 343.34-6.98L343.34-6.98Q343.53-7.42 343.53-8.06L343.53-8.06Q343.58-9.03 343.36-9.99 343.14-10.94 343.24-11.91L343.24-11.91Q343.24-12.45 343.36-12.99 343.48-13.53 343.53-14.06L343.53-14.06Q343.58-14.89 343.36-15.67 343.14-16.46 343.19-17.29L343.19-17.29Q343.24-17.68 343.36-18.04 343.48-18.41 343.73-18.7L343.73-18.7Q343.48-19.29 343.58-19.82L343.58-19.82Q343.63-20.65 343.78-21.39 343.92-22.12 343.97-22.85L343.97-22.85Q343.97-23.24 343.92-23.61 343.87-23.97 343.78-24.32L343.78-24.32 343.34-24.46Q343.04-24.46 342.78-24.32 342.51-24.17 342.31-23.97 342.12-23.78 341.97-23.66 341.82-23.54 341.68-23.54L341.68-23.54Q341.58-23.54 341.46-23.56 341.33-23.58 341.24-23.58L341.24-23.58Q341.14-23.58 340.87-23.39 340.6-23.19 340.24-22.97 339.87-22.75 339.53-22.53 339.19-22.31 338.99-22.27L338.99-22.27Q338.45-22.36 338.14-22.63 337.82-22.9 337.55-23.17 337.28-23.44 336.99-23.66 336.7-23.88 336.26-23.83L336.26-23.83Q336.11-24.12 336.09-24.46 336.06-24.8 336.11-25.15L336.11-25.15 336.11-25.93Q336.45-26.56 337.01-26.98 337.58-27.39 338.21-27.69L338.21-27.69 339.48-28.27Q340.11-28.56 340.65-29L340.65-29 341.09-29Q341.97-28.96 342.63-29.35 343.29-29.74 343.87-30.25 344.46-30.76 345.07-31.3 345.68-31.84 346.41-32.13L346.41-32.13Q346.95-31.88 347.54-31.71 348.12-31.54 348.76-31.49L348.76-31.49Q349.39-31.49 350.08-31.69 350.76-31.88 351.15-32.42L351.15-32.42Q351.39-32.32 351.56-32.3 351.74-32.28 351.98-32.28L351.98-32.28Q352.71-32.23 353.44-32.5 354.18-32.76 354.86-33.15L354.86-33.15Q355.84-33.11 356.79-33.28 357.74-33.45 358.69-33.64 359.65-33.84 360.6-34.01 361.55-34.18 362.53-34.13L362.53-34.13Q364.14-34.08 365.7-34.42 367.26-34.77 368.87-34.67L368.87-34.67Q370-34.62 371.1-34.5 372.19-34.38 373.32-34.42L373.32-34.42Q373.95-34.13 374.46-33.91 374.98-33.69 375.76-33.79L375.76-33.79Q377.32-32.47 378.59-30.71L378.59-30.71 378.59-29.88Q378.54-28.76 378.2-27.69 377.86-26.61 377.39-25.56 376.93-24.51 376.39-23.51 375.86-22.51 375.37-21.53L375.37-21.53Q372.19-18.65 369.02-15.82 365.85-12.99 362.48-10.35L362.48-10.35Q362.38-9.86 362.21-9.47 362.04-9.08 361.99-8.64L361.99-8.64Q361.99-8.4 362.04-8.25L362.04-8.25Q362.38-8.15 362.65-7.89 362.92-7.62 362.82-7.18L362.82-7.18 363.26-7.18Q363.5-7.18 363.5-6.98L363.5-6.98 364.28-6.93Q366.14-6.84 368-7.03 369.85-7.23 371.73-7.47 373.61-7.71 375.47-7.93 377.32-8.15 379.18-8.2L379.18-8.2Q379.62-8.35 380.1-8.45 380.59-8.54 380.98-8.84L380.98-8.84 381.13-8.84Q381.47-8.84 381.64-8.64 381.81-8.45 382.16-8.4L382.16-8.4Q382.4-8.4 382.67-8.5 382.94-8.59 383.23-8.64L383.23-8.64Q383.91-8.84 384.67-8.89 385.43-8.94 386.16-9.03L386.16-9.03Q388.99-9.28 391.77-9.35 394.56-9.42 397.34-10.06L397.34-10.06Q397.58-9.72 398.02-9.59 398.46-9.47 398.95-9.35 399.44-9.23 399.86-9.08 400.27-8.94 400.42-8.5ZM397.09-6.69L397.09-6.69Q396.85-6.3 396.51-5.98 396.17-5.66 395.87-5.32L395.87-5.32Q395.53-5.18 395.12-5.18 394.7-5.18 394.34-5.2 393.97-5.22 393.65-5.2 393.33-5.18 393.14-4.98L393.14-4.98Q392.75-5.08 392.55-5.35 392.36-5.62 391.87-5.66L391.87-5.66Q391.67-5.71 391.48-5.66L391.48-5.66Q390.75-6.49 390.14-7.42 389.53-8.35 388.99-9.18L388.99-9.18Q388.94-10.99 388.7-12.84L388.7-12.84Q388.65-13.28 388.55-13.72 388.45-14.16 388.4-14.55L388.4-14.55Q388.4-15.04 388.48-15.5 388.55-15.97 388.6-16.36L388.6-16.36Q388.79-17.77 389.04-19.14 389.28-20.51 389.48-21.92L389.48-21.92Q389.67-23.19 389.67-24.58 389.67-25.98 389.23-27.2L389.23-27.2 389.18-27.44Q389.28-27.83 389.4-28.1 389.53-28.37 389.57-28.71L389.57-28.71Q389.67-29.25 389.33-29.49L389.33-29.49Q389.48-29.88 389.82-30 390.16-30.13 390.21-30.57L390.21-30.57Q390.26-30.76 390.21-30.96L390.21-30.96Q390.6-31.1 391.02-31.23 391.43-31.35 391.82-31.25L391.82-31.25Q392.46-31.15 392.94-30.83 393.43-30.52 393.87-30.13L393.87-30.13Q394.65-27.78 394.51-25.17 394.36-22.56 394.02-19.92 393.68-17.29 393.58-14.77 393.48-12.26 394.36-10.11L394.36-10.11 394.46-10.06Q394.7-10.01 394.85-10.23 394.99-10.45 395.24-10.4L395.24-10.4Q395.43-10.3 395.48-10.3L395.48-10.3Q395.68-9.33 396.12-8.45 396.56-7.57 397.09-6.69ZM447.63 10.79L447.63 10.79Q447.34 11.13 446.82 11.21 446.31 11.28 445.77 11.3 445.24 11.33 444.67 11.38 444.11 11.43 443.77 11.72L443.77 11.72Q443.48 11.62 443.38 11.38 443.28 11.13 443.09 10.99L443.09 10.99 442.55 10.99Q441.38 10.99 440.38 10.62 439.38 10.25 438.45 9.77 437.52 9.28 436.59 8.74 435.67 8.2 434.64 7.86L434.64 7.86Q433.22 6.15 432.05 4.27 430.88 2.39 429.81 0.44L429.81 0.44 427.66-3.37Q426.58-5.32 425.41-7.18L425.41-7.18 425.31-7.23Q424.92-7.23 424.78-7.08 424.63-6.93 424.48-6.93L424.48-6.93Q424.39-6.93 424.14-7.18L424.14-7.18Q421.85-6.2 419.43-5.57 417.01-4.93 414.52-4.54L414.52-4.54Q413.84-4.44 413.2-4.39 412.57-4.35 411.89-4.25L411.89-4.25Q411.5-4.15 411.18-3.93 410.86-3.71 410.37-3.71L410.37-3.71Q410.08-3.71 409.79-3.78 409.49-3.86 409.3-4.05L409.3-4.05Q408.32-3.76 407.3-3.76L407.3-3.76Q405.54-3.76 404-4.57 402.46-5.37 401.05-6.35L401.05-6.35Q400.8-6.79 400.58-7.32 400.36-7.86 399.83-8.11L399.83-8.11Q399.68-9.38 399.34-10.57 399-11.77 398.61-12.99L398.61-12.99Q399.87-16.41 402.8-18.55L402.8-18.55Q403.15-18.8 403.49-19.02 403.83-19.24 404.17-19.48L404.17-19.48Q404.37-19.53 404.37-19.73L404.37-19.73Q404.37-19.87 404.32-19.97 404.27-20.07 404.27-20.17L404.27-20.17Q404.27-20.26 404.42-20.36L404.42-20.36Q405.64-20.65 406.37-21.46 407.1-22.27 408.03-23L408.03-23Q408.71-22.95 409.27-23.32 409.84-23.68 410.32-24.07L410.32-24.07Q410.52-24.17 410.52-24.32L410.52-24.32 410.52-24.76Q411.01-24.85 411.2-24.85 411.4-24.85 411.54-24.95L411.54-24.95Q411.69-25.05 411.84-25.2L411.84-25.2 412.33-25.68Q413.4-26.76 414.94-27.56 416.48-28.37 418.14-29.03 419.8-29.69 421.46-30.27 423.12-30.86 424.48-31.54L424.48-31.54Q425.66-31.64 426.83-31.84 428-32.03 429.12-32.03L429.12-32.03Q430.1-32.03 431-31.74 431.91-31.45 432.39-30.52L432.39-30.52Q435.47-30.42 438.06-29.32 440.65-28.22 443.09-26.51L443.09-26.51Q443.28-25.83 443.62-25.24 443.97-24.66 444.31-24.05 444.65-23.44 444.87-22.8 445.09-22.17 445.09-21.44L445.09-21.44Q445.09-20.07 444.55-18.85 444.02-17.63 443.77-16.36L443.77-16.36Q441.72-14.65 439.43-13.38 437.13-12.11 434.84-10.69L434.84-10.69Q433.62-10.69 432.86-10.25 432.1-9.81 431.12-9.13L431.12-9.13Q431.22-8.74 431.47-8.37 431.71-8.01 431.71-7.62L431.71-7.62Q431.71-7.32 431.52-7.03L431.52-7.03Q432.35-6.35 432.74-5.2 433.13-4.05 433.47-3.08L433.47-3.08Q433.76-2.1 434.23-1.54 434.69-0.98 435.23-0.15L435.23-0.15Q435.91 0.83 436.54 1.83 437.18 2.83 437.86 3.81L437.86 3.81Q438.2 4.05 438.82 4.49 439.43 4.93 440.06 5.4 440.7 5.86 441.28 6.25 441.87 6.64 442.21 6.79L442.21 6.79Q442.5 6.93 442.79 6.93L442.79 6.93Q442.99 6.93 443.14 6.88L443.14 6.88 443.43 6.79Q443.38 6.84 443.38 6.93L443.38 6.93Q443.38 7.18 443.53 7.18 443.67 7.18 443.77 7.52L443.77 7.52Q445.38 7.62 446.38 8.4 447.38 9.18 447.63 10.79ZM440.79-20.9L440.79-20.9Q440.74-21.92 440.35-22.61 439.96-23.29 439.57-24.22L439.57-24.22Q438.89-24.46 438.42-24.76 437.96-25.05 437.52-25.32 437.08-25.59 436.52-25.71 435.96-25.83 435.18-25.78L435.18-25.78Q434.45-26.22 433.62-26.22L433.62-26.22Q432.35-26.22 431.15-25.68 429.95-25.15 428.68-24.9L428.68-24.9Q428.73-24.85 428.73-24.71L428.73-24.71Q428.73-24.56 428.63-24.44 428.54-24.32 428.54-24.17L428.54-24.17 428.54-24.07Q428.93-23.73 429.44-23.63 429.95-23.54 430.29-23.14L430.29-23.14Q430.15-22.9 430.15-22.56L430.15-22.56Q430.15-22.27 430.34-22.07 430.54-21.88 430.78-21.73 431.03-21.58 431.25-21.39 431.47-21.19 431.52-20.9L431.52-20.9Q431.37-20.21 430.93-19.78 430.49-19.34 429.93-19.07 429.37-18.8 428.73-18.65 428.1-18.51 427.51-18.46L427.51-18.46Q427.27-18.7 427.05-18.9 426.83-19.09 426.78-19.48L426.78-19.48Q425.9-19.63 425.34-20.07 424.78-20.51 424.31-21.07 423.85-21.63 423.41-22.22 422.97-22.8 422.38-23.34L422.38-23.34Q422.58-23.68 422.58-24.17L422.58-24.17Q422.58-24.51 422.43-24.8 422.29-25.1 421.9-25.1L421.9-25.1Q421.65-25.1 421.55-24.9L421.55-24.9 421.36-24.56Q421.26-24.41 421.12-24.24 420.97-24.07 420.63-24.07L420.63-24.07 419.45-24.07Q418.33-23.29 417.11-22.63 415.89-21.97 414.69-21.31 413.5-20.65 412.37-19.87 411.25-19.09 410.32-18.12L410.32-18.12Q410.08-18.02 409.91-17.85 409.74-17.68 409.45-17.77L409.45-17.77Q409.15-17.09 408.42-16.5 407.69-15.92 406.91-15.31 406.12-14.7 405.51-13.96 404.9-13.23 404.9-12.3L404.9-12.3Q404.9-11.33 405.71-10.55 406.52-9.77 407.44-9.77L407.44-9.77Q407.64-9.77 408.03-9.86L408.03-9.86Q407.98-9.62 408.15-9.42 408.32-9.23 408.62-9.28L408.62-9.28Q409.15-9.13 409.66-9.08 410.18-9.03 410.76-9.03L410.76-9.03Q411.35-9.03 411.94-9.06 412.52-9.08 413.11-9.08L413.11-9.08Q413.94-9.08 414.91-8.94L414.91-8.94Q415.74-9.47 416.7-9.64 417.65-9.81 418.53-10.21L418.53-10.21 419.26-9.86Q419.94-10.6 421.07-10.86 422.19-11.13 423.12-11.38L423.12-11.38Q423.12-12.21 422.85-12.79 422.58-13.38 422.26-13.89 421.95-14.4 421.65-14.97 421.36-15.53 421.36-16.36L421.36-16.36Q421.26-16.31 421.04-16.33 420.82-16.36 420.82-16.5L420.82-16.5Q420.82-17.53 421.04-18.63 421.26-19.73 422.24-20.36L422.24-20.36Q422.53-20.21 422.87-20.21L422.87-20.21Q423.26-20.21 423.56-20.31 423.85-20.41 424.14-20.56L424.14-20.56Q424.29-20.12 424.68-20.21L424.68-20.21Q425.02-19.34 425.53-18.51 426.05-17.68 426.51-16.87 426.97-16.06 427.37-15.21 427.76-14.36 427.85-13.33L427.85-13.33 428.24-13.33Q428.73-13.33 429.07-13.45 429.42-13.57 429.71-13.77 430-13.96 430.29-14.14 430.59-14.31 430.98-14.4L430.98-14.4Q431.12-14.26 431.47-14.26L431.47-14.26Q431.76-14.26 432.05-14.45 432.35-14.65 432.74-14.65L432.74-14.65Q432.83-14.65 432.91-14.62 432.98-14.6 433.08-14.6L433.08-14.6Q433.81-15.23 434.79-15.67 435.76-16.11 436.74-16.58 437.72-17.04 438.57-17.58 439.43-18.12 439.96-18.95L439.96-18.95Q440.11-19.19 440.13-19.48 440.16-19.78 440.21-20.04 440.26-20.31 440.38-20.53 440.5-20.75 440.79-20.9ZM478.19-7.91L478.19-7.91Q478-7.18 477.56-6.69 477.12-6.2 476.56-5.81 476-5.42 475.36-5.1 474.73-4.79 474.14-4.39L474.14-4.39 473.51-4.39Q471.45-4.39 470.36-5.4 469.26-6.4 468.67-7.89 468.09-9.38 467.82-11.08 467.55-12.79 467.16-14.21L467.16-14.21Q466.57-13.72 466.18-13.06 465.79-12.4 465.38-11.77 464.96-11.13 464.45-10.6 463.93-10.06 463.1-9.86L463.1-9.86Q462.96-9.52 462.79-9.18 462.62-8.84 462.57-8.45L462.57-8.45Q461.49-7.86 460.61-7.08 459.74-6.3 458.86-5.47 457.98-4.64 457.07-3.88 456.17-3.13 455.05-2.64L455.05-2.64Q455-2.69 454.85-2.69L454.85-2.69Q454.27-2.69 453.78-2.42 453.29-2.15 452.7-2.15L452.7-2.15Q452.31-2.15 452-2.29 451.68-2.44 451.36-2.64 451.04-2.83 450.7-2.93 450.36-3.03 449.97-2.98L449.97-2.98Q449.48-3.86 448.68-4.61 447.87-5.37 447.68-6.35L447.68-6.35Q447.58-6.79 447.55-7.25 447.53-7.71 447.43-8.2L447.43-8.2Q447.28-8.94 447.04-9.69 446.8-10.45 446.65-11.23L446.65-11.23Q446.89-12.55 447.11-14.14 447.33-15.72 447.65-17.31 447.97-18.9 448.53-20.34 449.09-21.78 449.97-22.8L449.97-22.8 449.92-23.14Q449.92-23.93 450.21-24.61 450.51-25.29 450.85-25.93 451.19-26.56 451.43-27.2 451.68-27.83 451.53-28.61L451.53-28.61Q452.12-28.91 452.75-29.1 453.39-29.3 454.07-29.3L454.07-29.3Q454.71-29.3 455.24-29.1L455.24-29.1Q455.15-28.71 455.59-28.61L455.59-28.61 455.59-28.47Q455.59-27.44 455.34-26.46 455.1-25.49 454.76-24.54 454.41-23.58 454.1-22.63 453.78-21.68 453.63-20.7L453.63-20.7Q453.44-20.65 453.36-20.51 453.29-20.36 453.24-20.21 453.19-20.07 453.1-19.97 453-19.87 452.8-19.87L452.8-19.87Q452.51-18.16 452.19-16.48 451.87-14.79 451.87-13.09L451.87-13.09Q451.87-12.06 452.07-10.99 452.26-9.91 452.8-8.94L452.8-8.94 453-8.98Q453.53-8.98 453.85-8.74 454.17-8.5 454.71-8.25L454.71-8.25Q455.1-8.35 455.44-8.52 455.78-8.69 455.73-9.13L455.73-9.13Q456.37-9.18 456.81-9.45 457.25-9.72 457.59-10.06L457.59-10.06 458.32-10.74Q458.71-11.08 459.25-11.23L459.25-11.23Q459.25-11.52 459.39-11.67L459.39-11.67 459.69-11.96Q459.83-12.11 459.91-12.28 459.98-12.45 459.93-12.79L459.93-12.79Q460.52-12.84 460.83-13.09 461.15-13.33 461.42-13.65 461.69-13.96 461.93-14.31 462.18-14.65 462.57-14.89L462.57-14.89Q462.91-15.63 463.52-16.85 464.13-18.07 464.74-19.38 465.35-20.7 465.81-21.9 466.28-23.1 466.28-23.73L466.28-23.73Q466.28-23.97 466.16-24.17 466.03-24.37 466.08-24.61L466.08-24.61 466.08-24.76Q466.47-25.24 466.79-25.83 467.11-26.42 467.47-26.95 467.84-27.49 468.28-27.93 468.72-28.37 469.4-28.61L469.4-28.61Q470.18-28.37 470.99-28.27 471.8-28.17 472.53-27.88L472.53-27.88Q472.58-26.66 472.77-25.05 472.97-23.44 473.46-22.31L473.46-22.31Q473.46-21.68 473.43-21.09 473.41-20.51 473.41-19.92L473.41-19.92Q473.41-18.95 473.48-17.92 473.55-16.89 473.8-16.02L473.8-16.02Q473.46-15.28 473.46-14.45L473.46-14.45Q473.46-13.33 473.8-12.33 474.14-11.33 474.29-10.21L474.29-10.21Q474.92-9.33 475.95-9.33L475.95-9.33Q476.19-9.33 476.36-9.38 476.53-9.42 476.73-9.52L476.73-9.52Q477.12-9.08 477.44-8.67 477.75-8.25 478.19-7.91ZM510.71-31.05L510.71-31.05 510.71-30.86Q510.37-30.76 510.37-30.37L510.37-30.37Q509.83-30.13 509.24-30 508.66-29.88 508.12-29.64L508.12-29.64Q507.58-29.69 507.02-29.71 506.46-29.74 505.92-29.74L505.92-29.74Q504.46-29.74 502.99-29.64 501.53-29.54 500.07-29.64L500.07-29.64Q499.38-29.25 498.58-29.03 497.77-28.81 497.04-28.81L497.04-28.81Q496.45-28.81 496.01-28.96L496.01-28.96Q494.84-28.37 493.45-27.98 492.06-27.59 490.64-27.22 489.23-26.86 487.93-26.39 486.64-25.93 485.66-25.1L485.66-25.1Q485.56-24.41 485.51-23.75 485.47-23.1 485.47-22.46L485.47-22.46Q485.47-21.78 485.54-21.19 485.61-20.61 485.86-20.02L485.86-20.02Q486.1-19.92 486.42-19.87 486.74-19.82 486.98-19.82L486.98-19.82Q487.22-19.82 487.47-19.9 487.71-19.97 487.81-20.21L487.81-20.21Q488.54-20.31 489.27-20.29 490.01-20.26 490.74-20.26L490.74-20.26Q491.47-20.26 492.18-20.31 492.89-20.36 493.57-20.56L493.57-20.56Q494.35-20.75 495.11-20.8 495.87-20.85 496.6-20.9 497.33-20.95 498.11-21.07 498.89-21.19 499.72-21.58L499.72-21.58Q500.36-21.34 501.02-21.34 501.68-21.34 502.31-21.24L502.31-21.24Q502.65-21 502.87-20.7 503.09-20.41 503.09-20.02L503.09-20.02Q503.09-19.34 502.6-18.65 502.12-17.97 501.82-17.38L501.82-17.38 501.29-17.38Q500.11-17.38 499.02-17.07 497.92-16.75 496.82-16.33 495.72-15.92 494.62-15.6 493.52-15.28 492.35-15.28L492.35-15.28Q492.16-15.28 492.13-15.06 492.11-14.84 492.01-14.75L492.01-14.75Q491.76-14.79 491.28-14.79L491.28-14.79Q490.15-14.79 489.13-14.55 488.1-14.31 487.03-14.31L487.03-14.31Q486.74-14.31 486.44-14.33 486.15-14.36 485.86-14.4L485.86-14.4Q485.61-14.01 485.22-13.89 484.83-13.77 484.49-13.48L484.49-13.48Q484.34-13.04 484.32-12.4 484.29-11.77 484.27-11.11 484.24-10.45 484.15-9.86 484.05-9.28 483.76-8.94L483.76-8.94Q483.81-8.69 484.15-8.76 484.49-8.84 484.49-8.45L484.49-8.45Q484.49-8.01 484.39-7.52 484.29-7.03 484.29-6.54L484.29-6.54Q484.29-5.62 484.51-4.52 484.73-3.42 485.2-2.49 485.66-1.56 486.44-0.95 487.22-0.34 488.4-0.34L488.4-0.34Q489.18-0.34 489.86-0.63 490.54-0.93 490.98-1.61L490.98-1.61 491.23-1.66Q491.42-1.66 491.59-1.61 491.76-1.56 491.96-1.56L491.96-1.56Q492.25-1.56 492.72-1.93 493.18-2.29 493.74-2.78 494.3-3.27 494.89-3.74 495.48-4.2 496.01-4.39L496.01-4.39Q496.35-5.08 496.67-5.76 496.99-6.45 497.62-6.84L497.62-6.84 497.62-8.25Q498.11-8.79 498.67-9.23 499.24-9.67 499.53-10.35L499.53-10.35Q499.77-10.25 499.99-10.21 500.21-10.16 500.46-10.16L500.46-10.16Q500.7-10.16 500.97-10.21 501.24-10.25 501.48-10.35L501.48-10.35Q501.87-9.81 502.09-9.16 502.31-8.5 502.65-7.91L502.65-7.91Q502.21-7.03 501.63-5.81 501.04-4.59 500.36-3.37 499.67-2.15 498.92-1.05 498.16 0.05 497.43 0.63L497.43 0.63Q497.28 0.78 496.79 0.98L496.79 0.98Q496.26 1.37 495.82 1.73 495.38 2.1 494.99 2.59L494.99 2.59Q493.57 3.03 492.28 3.76 490.98 4.49 489.71 5.18L489.71 5.18Q489.13 5.03 488.44 5.03L488.44 5.03Q487.86 5.03 487.27 5.1 486.69 5.18 486 5.18L486 5.18Q485.81 4.93 485.44 4.86 485.07 4.79 485.17 4.35L485.17 4.35Q483.51 4.25 482.49 3.44 481.46 2.64 480.75 1.46 480.05 0.29 479.61-1.07 479.17-2.44 478.68-3.71L478.68-3.71 478.68-3.86Q478.68-4.1 478.87-4.15 479.07-4.2 479.07-4.44L479.07-4.44Q479.07-4.54 479.02-4.59L479.02-4.59Q478.87-5.13 478.78-5.52 478.68-5.91 478.68-6.45L478.68-6.45Q478.68-7.23 478.78-7.98 478.87-8.74 478.87-9.52L478.87-9.52Q478.87-10.3 478.68-10.89L478.68-10.89Q478.87-11.13 479-11.55 479.12-11.96 479.17-12.4 479.22-12.84 479.24-13.28 479.26-13.72 479.36-14.06L479.36-14.06Q479.17-14.6 479.02-15.01 478.87-15.43 478.87-16.02L478.87-16.02 478.87-16.36Q479.36-17.19 479.7-18.07 480.05-18.95 480.44-19.87L480.44-19.87 480.44-20.02Q480.44-21.44 480.34-22.85 480.24-24.27 480.24-25.68L480.24-25.68 480.24-26.61Q480.24-27.1 480.29-27.54L480.29-27.54Q480.68-27.73 480.88-28.08 481.07-28.42 481.46-28.61L481.46-28.61 483.07-28.61 483.37-29.1Q483.51-29.35 483.56-29.64L483.56-29.64Q484.1-29.79 484.61-30.05 485.12-30.32 485.56-30.62L485.56-30.62Q486.25-31.01 486.81-31.32 487.37-31.64 487.93-31.86 488.49-32.08 489.13-32.23 489.76-32.37 490.59-32.47L490.59-32.47Q490.98-32.47 491.11-32.62 491.23-32.76 491.47-32.96L491.47-32.96Q492.06-32.86 492.64-32.79 493.23-32.71 493.82-32.71L493.82-32.71Q494.99-32.71 496.01-33.15L496.01-33.15Q497.48-33.15 498.92-33.2 500.36-33.25 501.82-33.25L501.82-33.25Q503.09-33.25 504.36-33.15 505.63-33.06 506.85-32.81L506.85-32.81Q507.29-32.96 507.83-32.96L507.83-32.96Q508.41-32.96 509.03-32.84 509.64-32.71 510.22-32.81L510.22-32.81Q510.27-32.28 510.49-31.91 510.71-31.54 510.71-31.05Z" opacity="1" transform="matrix(1,0,0,1,0,0)" fill="#000000" class="undefined-text-0" data-fill-palette-color="primary" id="text-0"></path></svg></g></svg></g></svg></g></svg></g><g transform="matrix(1,0,0,1,66.25923653729873,0)"><svg viewBox="0 0 75.48152692540255 37.834058987414735" height="37.834058987414735" width="75.48152692540255"><g><svg xmlns="http://www.w3.org/2000/svg" xmlns:xlink="http://www.w3.org/1999/xlink" xml:space="preserve" style="shape-rendering:geometricPrecision;text-rendering:geometricPrecision;image-rendering:optimizeQuality;" viewBox="0.0000020265579223632812 0.0000027120113372802734 14.727499008178711 7.38195276260376" x="0" y="0" fill-rule="evenodd" clip-rule="evenodd" width="75.48152692540255" height="37.834058987414735" class="icon-icon-0" data-fill-palette-color="accent" id="icon-0"><g fill="#000000" data-fill-palette-color="accent"><path class="" d="M1.757 3.091c-0.313 0.444-0.296 1.331-0.417 1.95-0.153 0.784-0.711 1.203-1.34 1.534 0.188-0.771 0.348-1.542 0.412-2.313 0.078-0.953-0.06-0.891 0.767-1.575 1.159-0.961 3.04-1.741 5.848-2.29 2.456-0.406 5.049-0.453 7.701-0.351-0.89 1.809-3.733 1.961-7.203 1.581-1.811 0.02-3.495-0.488-5.768 1.464z m8.33 2.781c-3.895 2.038-7.803-2.284-9.165 0.688 2.104-1.831 5.079 3.183 9.165-0.688z m2.489-2.547c-4.49 2.72-9.502-0.792-10.907 1.859 3.412-1.235 7.765 2.753 10.907-1.859z m0.834-1.478c-3.944 1.761-10.043-1.402-11.565 2.239 3.106-1.808 8.446 1.438 11.565-2.239z" fill="#000000" data-fill-palette-color="accent"></path></g></svg></g></svg></g><g></g></svg></g></svg></g></svg></g></svg></g><defs></defs></svg><rect width="320" height="360" fill="none" stroke="none" visibility="hidden"></rect></g></svg></g></svg>